<svg width="199" height="216" viewBox="0 0 199 216" fill="none" xmlns="http://www.w3.org/2000/svg">
<path d="M26.2948 79.2629L85.0318 55.4273C87.5412 54.4089 88.796 53.8997 90.1243 53.7402C91.4526 53.5807 92.7922 53.7784 95.4714 54.1737L171.053 65.3251L185.253 85.525C191.549 94.4808 194.697 98.9588 193.531 103.44C192.364 107.922 187.432 110.297 177.569 115.047L176.341 115.638V165.516C176.341 171.197 176.341 174.037 174.983 176.369C173.625 178.702 171.155 180.104 166.215 182.909L113.216 213L40.386 190.478C33.5944 188.377 30.1986 187.327 28.2467 184.68C26.2948 182.034 26.2948 178.479 26.2948 171.37V121.74C15.6881 119.044 10.3847 117.696 8.27983 114.005C7.71001 113.005 7.31687 111.915 7.11771 110.782C6.38199 106.597 9.60401 102.174 16.0481 93.3287L26.2948 79.2629Z" fill="url(#paint0_linear)"/>
<path d="M26.2948 79.2629L85.0318 55.4273C87.5412 54.4089 88.796 53.8997 90.1243 53.7402C91.4526 53.5807 92.7922 53.7784 95.4714 54.1737L171.053 65.3251L185.253 85.525C191.549 94.4808 194.697 98.9588 193.531 103.44C192.364 107.922 187.432 110.297 177.569 115.047L176.341 115.638V165.516C176.341 171.197 176.341 174.037 174.983 176.369C173.625 178.702 171.155 180.104 166.215 182.909L113.216 213L40.386 190.478C33.5944 188.377 30.1986 187.327 28.2467 184.68C26.2948 182.034 26.2948 178.479 26.2948 171.37V121.74C15.6881 119.044 10.3847 117.696 8.27983 114.005C7.71001 113.005 7.31687 111.915 7.11771 110.782C6.38199 106.597 9.60401 102.174 16.0481 93.3287L26.2948 79.2629Z" fill="url(#paint1_linear)"/>
<path d="M26.2948 79.2629L85.0318 55.4273C87.5412 54.4089 88.796 53.8997 90.1243 53.7402C91.4526 53.5807 92.7922 53.7784 95.4714 54.1737L171.053 65.3251M26.2948 79.2629L113.216 95.8556M26.2948 79.2629L16.0481 93.3287C9.60401 102.174 6.38199 106.597 7.11771 110.782C7.31687 111.915 7.71001 113.005 8.27983 114.005C10.3847 117.696 15.6881 119.044 26.2948 121.74V121.74M171.053 65.3251L185.253 85.525C191.549 94.4808 194.697 98.9588 193.531 103.44C192.364 107.922 187.432 110.297 177.569 115.047L151.531 127.585C143.264 131.567 139.13 133.557 135.282 132.275C131.435 130.992 129.323 126.919 125.099 118.772L113.216 95.8556M171.053 65.3251L113.216 95.8556M113.216 95.8556V213M113.216 95.8556L91.8186 127.367C87.797 133.289 85.7862 136.251 82.6621 137.339C79.5379 138.428 76.1223 137.357 69.2911 135.216L26.2948 121.74M113.216 213L166.215 182.909C171.155 180.104 173.625 178.702 174.983 176.369C176.341 174.037 176.341 171.197 176.341 165.516V115.638M113.216 213L40.386 190.478C33.5944 188.377 30.1986 187.327 28.2467 184.68C26.2948 182.034 26.2948 178.479 26.2948 171.37V121.74" stroke="white" stroke-width="5"/>
<rect x="79.7397" y="33.3615" width="24.0619" height="24.8064" rx="12.031" fill="#66A3FF"/>
<rect x="82.7583" y="37.0393" width="18.4771" height="17.4506" rx="8.7253" fill="white"/>
<path d="M85.5872 45.4611L88.6438 46.6964V47.6535L84.6497 45.8029V45.09L88.6438 43.2443V44.2013L85.5872 45.4611ZM90.2502 49.216H89.4739L92.4426 41.4962H93.2141L90.2502 49.216ZM97.3889 45.4318L94.1614 44.1671V43.2394L98.3313 45.0851V45.798L94.1614 47.6486V46.7111L97.3889 45.4318Z" fill="#64B5F6"/>
<rect x="105.916" y="45.1663" width="28.1496" height="25.4661" rx="12.7331" fill="#FF9800"/>
<path d="M112.907 49.9257V64.899C112.907 65.7259 113.692 66.3964 114.66 66.3964H126.057C127.025 66.3964 127.81 65.7259 127.81 64.899V49.9257C127.81 49.0988 127.025 48.4283 126.057 48.4283H114.66C113.692 48.4283 112.907 49.0988 112.907 49.9257Z" fill="#7E8188"/>
<path d="M114.518 50.5422V52.6561C114.518 53.0454 114.92 53.3607 115.417 53.3607H125.301C125.797 53.3607 126.199 53.0454 126.199 52.6561V50.5422C126.199 50.1529 125.797 49.8376 125.3 49.8376H115.416C114.92 49.8376 114.518 50.1529 114.518 50.5422Z" fill="#ACB7D0"/>
<path d="M115.928 57.2362C116.706 57.2362 117.337 56.6841 117.337 56.0031C117.337 55.322 116.706 54.77 115.928 54.77C115.149 54.77 114.518 55.322 114.518 56.0031C114.518 56.6841 115.149 57.2362 115.928 57.2362Z" fill="#E2E9F7"/>
<path d="M120.359 57.2362C121.137 57.2362 121.768 56.6841 121.768 56.0031C121.768 55.322 121.137 54.77 120.359 54.77C119.58 54.77 118.949 55.322 118.949 56.0031C118.949 56.6841 119.58 57.2362 120.359 57.2362Z" fill="#E2E9F7"/>
<path d="M124.789 57.2362C125.568 57.2362 126.199 56.6841 126.199 56.0031C126.199 55.322 125.568 54.77 124.789 54.77C124.011 54.77 123.379 55.322 123.379 56.0031C123.379 56.6841 124.011 57.2362 124.789 57.2362Z" fill="#EFC88E"/>
<path d="M115.928 61.1116C116.706 61.1116 117.337 60.5595 117.337 59.8785C117.337 59.1975 116.706 58.6454 115.928 58.6454C115.149 58.6454 114.518 59.1975 114.518 59.8785C114.518 60.5595 115.149 61.1116 115.928 61.1116Z" fill="#E2E9F7"/>
<path d="M120.359 61.1116C121.137 61.1116 121.768 60.5595 121.768 59.8785C121.768 59.1975 121.137 58.6454 120.359 58.6454C119.58 58.6454 118.949 59.1975 118.949 59.8785C118.949 60.5595 119.58 61.1116 120.359 61.1116Z" fill="#E2E9F7"/>
<path d="M124.789 61.1116C125.568 61.1116 126.199 60.5595 126.199 59.8785C126.199 59.1975 125.568 58.6454 124.789 58.6454C124.011 58.6454 123.379 59.1975 123.379 59.8785C123.379 60.5595 124.011 61.1116 124.789 61.1116Z" fill="#EFC88E"/>
<path d="M124.789 64.9871C125.568 64.9871 126.199 64.435 126.199 63.754C126.199 63.073 125.568 62.5209 124.789 62.5209C124.011 62.5209 123.379 63.073 123.379 63.754C123.379 64.435 124.011 64.9871 124.789 64.9871Z" fill="#EFC88E"/>
<path d="M120.358 62.5209H115.928C115.149 62.5209 114.518 63.073 114.518 63.754C114.518 64.435 115.149 64.9871 115.928 64.9871H120.358C121.137 64.9871 121.768 64.435 121.768 63.754C121.768 63.073 121.137 62.5209 120.358 62.5209Z" fill="#E2E9F7"/>
<path d="M126.057 66.7487H114.66C113.471 66.7487 112.504 65.919 112.504 64.899V49.9256C112.504 48.9057 113.471 48.076 114.66 48.076H126.057C127.246 48.076 128.213 48.9057 128.213 49.9256V64.899C128.213 65.919 127.246 66.7487 126.057 66.7487ZM114.66 48.7806C113.915 48.7806 113.31 49.2943 113.31 49.9256V64.899C113.31 65.5304 113.915 66.044 114.66 66.044H126.057C126.802 66.044 127.407 65.5304 127.407 64.899V49.9256C127.407 49.2943 126.802 48.7806 126.057 48.7806H114.66Z" fill="#8D6C9F"/>
<path d="M125.301 53.713H115.416C114.699 53.713 114.115 53.2388 114.115 52.6561V50.5422C114.115 49.9595 114.699 49.4853 115.417 49.4853H125.301C126.018 49.4853 126.602 49.9595 126.602 50.5422V52.6561C126.602 53.2388 126.018 53.713 125.301 53.713ZM115.416 50.1899C115.143 50.1899 114.921 50.3477 114.921 50.5422V52.6561C114.921 52.8506 115.143 53.0084 115.417 53.0084H125.301C125.574 53.0084 125.796 52.8506 125.796 52.6561V50.5422C125.796 50.3477 125.574 50.1899 125.301 50.1899H115.416Z" fill="#8D6C9F"/>
<path d="M115.928 57.5885C114.928 57.5885 114.115 56.8772 114.115 56.0031C114.115 55.129 114.928 54.4177 115.928 54.4177C116.927 54.4177 117.74 55.129 117.74 56.0031C117.74 56.8772 116.927 57.5885 115.928 57.5885ZM115.928 55.1223C115.373 55.1223 114.921 55.5172 114.921 56.0031C114.921 56.4889 115.373 56.8839 115.928 56.8839C116.483 56.8839 116.935 56.4889 116.935 56.0031C116.935 55.5172 116.483 55.1223 115.928 55.1223Z" fill="#8D6C9F"/>
<path d="M120.358 57.5885C119.359 57.5885 118.546 56.8772 118.546 56.0031C118.546 55.129 119.359 54.4177 120.358 54.4177C121.358 54.4177 122.171 55.129 122.171 56.0031C122.171 56.8772 121.358 57.5885 120.358 57.5885ZM120.358 55.1223C119.803 55.1223 119.351 55.5172 119.351 56.0031C119.351 56.4889 119.803 56.8839 120.358 56.8839C120.914 56.8839 121.365 56.4889 121.365 56.0031C121.365 55.5172 120.914 55.1223 120.358 55.1223Z" fill="#8D6C9F"/>
<path d="M124.789 57.5885C123.79 57.5885 122.977 56.8772 122.977 56.0031C122.977 55.129 123.79 54.4177 124.789 54.4177C125.789 54.4177 126.602 55.129 126.602 56.0031C126.602 56.8772 125.789 57.5885 124.789 57.5885ZM124.789 55.1223C124.234 55.1223 123.782 55.5172 123.782 56.0031C123.782 56.4889 124.234 56.8839 124.789 56.8839C125.344 56.8839 125.796 56.4889 125.796 56.0031C125.796 55.5172 125.344 55.1223 124.789 55.1223Z" fill="#8D6C9F"/>
<path d="M115.928 61.464C114.928 61.464 114.115 60.7526 114.115 59.8785C114.115 59.0044 114.928 58.2931 115.928 58.2931C116.927 58.2931 117.74 59.0044 117.74 59.8785C117.74 60.7526 116.927 61.464 115.928 61.464ZM115.928 58.9978C115.373 58.9978 114.921 59.3927 114.921 59.8785C114.921 60.3644 115.373 60.7593 115.928 60.7593C116.483 60.7593 116.935 60.3644 116.935 59.8785C116.935 59.3927 116.483 58.9978 115.928 58.9978Z" fill="#8D6C9F"/>
<path d="M120.358 61.464C119.359 61.464 118.546 60.7526 118.546 59.8785C118.546 59.0044 119.359 58.2931 120.358 58.2931C121.358 58.2931 122.171 59.0044 122.171 59.8785C122.171 60.7526 121.358 61.464 120.358 61.464ZM120.358 58.9978C119.803 58.9978 119.351 59.3927 119.351 59.8785C119.351 60.3644 119.803 60.7593 120.358 60.7593C120.914 60.7593 121.365 60.3644 121.365 59.8785C121.365 59.3927 120.914 58.9978 120.358 58.9978Z" fill="#8D6C9F"/>
<path d="M124.789 61.464C123.79 61.464 122.977 60.7526 122.977 59.8785C122.977 59.0044 123.79 58.2931 124.789 58.2931C125.789 58.2931 126.602 59.0044 126.602 59.8785C126.602 60.7526 125.789 61.464 124.789 61.464ZM124.789 58.9978C124.234 58.9978 123.782 59.3927 123.782 59.8785C123.782 60.3644 124.234 60.7593 124.789 60.7593C125.344 60.7593 125.796 60.3644 125.796 59.8785C125.796 59.3927 125.344 58.9978 124.789 58.9978Z" fill="#8D6C9F"/>
<path d="M124.789 65.3394C123.79 65.3394 122.977 64.6281 122.977 63.754C122.977 62.8799 123.79 62.1686 124.789 62.1686C125.789 62.1686 126.602 62.8799 126.602 63.754C126.602 64.6281 125.789 65.3394 124.789 65.3394ZM124.789 62.8732C124.234 62.8732 123.782 63.2682 123.782 63.754C123.782 64.2398 124.234 64.6348 124.789 64.6348C125.344 64.6348 125.796 64.2398 125.796 63.754C125.796 63.2682 125.344 62.8732 124.789 62.8732Z" fill="#8D6C9F"/>
<path d="M120.358 65.3394H115.928C114.928 65.3394 114.115 64.6281 114.115 63.754C114.115 62.8799 114.928 62.1686 115.928 62.1686H120.358C121.358 62.1686 122.171 62.8799 122.171 63.754C122.171 64.6281 121.358 65.3394 120.358 65.3394ZM115.928 62.8732C115.373 62.8732 114.921 63.2682 114.921 63.754C114.921 64.2398 115.373 64.6348 115.928 64.6348H120.358C120.914 64.6348 121.365 64.2398 121.365 63.754C121.365 63.2682 120.914 62.8732 120.358 62.8732H115.928Z" fill="#8D6C9F"/>
<rect x="69.4747" y="62.1036" width="22.9146" height="23.1558" rx="11.4573" fill="#BBDEFB"/>
<rect x="69.4747" y="62.1036" width="22.9146" height="23.1558" rx="11.4573" fill="#BBDEFB"/>
<circle cx="81.1732" cy="74.0433" r="7.83921" fill="#808080" fill-opacity="0.69"/>
<circle cx="81.1732" cy="74.0433" r="4.94473" fill="#FF0000" fill-opacity="0.69"/>
<rect x="43.2988" y="46.706" width="26.1759" height="25.6627" rx="12.8313" fill="#FF4D4D" fill-opacity="0.61"/>
<path d="M50.9572 60.2412H48.5743L48.0392 61.7256H47.2657L49.4376 56.0381H50.0939L52.2697 61.7256H51.5001L50.9572 60.2412ZM48.8009 59.6241H50.7345L49.7657 56.9639L48.8009 59.6241ZM55.3829 60.6045C55.3829 60.4092 55.3087 60.2582 55.1603 60.1514C55.0144 60.042 54.7579 59.9483 54.3907 59.8701C54.0262 59.792 53.7358 59.6983 53.5197 59.5889C53.3061 59.4795 53.1473 59.3493 53.0431 59.1983C52.9415 59.0472 52.8907 58.8675 52.8907 58.6592C52.8907 58.3129 53.0366 58.0199 53.3282 57.7803C53.6225 57.5407 53.9975 57.4209 54.4532 57.4209C54.9324 57.4209 55.3204 57.5446 55.6173 57.792C55.9168 58.0394 56.0665 58.3558 56.0665 58.7412H55.34C55.34 58.5433 55.2553 58.3728 55.0861 58.2295C54.9194 58.0863 54.7085 58.0147 54.4532 58.0147C54.1902 58.0147 53.9845 58.072 53.8361 58.1866C53.6876 58.3011 53.6134 58.4509 53.6134 58.6358C53.6134 58.8103 53.6824 58.9418 53.8204 59.0303C53.9585 59.1188 54.2072 59.2035 54.5665 59.2842C54.9285 59.3649 55.2215 59.4613 55.4454 59.5733C55.6694 59.6853 55.8348 59.8207 55.9415 59.9795C56.0509 60.1358 56.1056 60.3272 56.1056 60.5537C56.1056 60.9313 55.9545 61.2347 55.6525 61.4639C55.3504 61.6905 54.9585 61.8037 54.4767 61.8037C54.1381 61.8037 53.8387 61.7438 53.5782 61.6241C53.3178 61.5043 53.1134 61.3376 52.965 61.1241C52.8191 60.9079 52.7462 60.6748 52.7462 60.4248H53.4689C53.4819 60.667 53.5782 60.8597 53.7579 61.003C53.9402 61.1436 54.1798 61.2139 54.4767 61.2139C54.7501 61.2139 54.9689 61.1592 55.1329 61.0498C55.2996 60.9379 55.3829 60.7894 55.3829 60.6045ZM58.7423 61.2139C59.0001 61.2139 59.2254 61.1358 59.4181 60.9795C59.6108 60.8233 59.7176 60.628 59.7384 60.3936H60.422C60.409 60.6358 60.3256 60.8662 60.172 61.085C60.0184 61.3037 59.8126 61.4782 59.5548 61.6084C59.2996 61.7386 59.0288 61.8037 58.7423 61.8037C58.1668 61.8037 57.7085 61.6123 57.3673 61.2295C57.0288 60.8441 56.8595 60.3181 56.8595 59.6514V59.5303C56.8595 59.1188 56.935 58.753 57.0861 58.4326C57.2371 58.1123 57.4532 57.8636 57.7345 57.6866C58.0184 57.5095 58.353 57.4209 58.7384 57.4209C59.2124 57.4209 59.6056 57.5629 59.9181 57.8467C60.2332 58.1306 60.4012 58.4991 60.422 58.9522H59.7384C59.7176 58.6787 59.6134 58.4548 59.4259 58.2803C59.241 58.1032 59.0118 58.0147 58.7384 58.0147C58.3712 58.0147 58.0861 58.1475 57.8829 58.4131C57.6824 58.6761 57.5822 59.0576 57.5822 59.5576V59.6944C57.5822 60.1813 57.6824 60.5563 57.8829 60.8194C58.0835 61.0824 58.3699 61.2139 58.7423 61.2139ZM62.0197 61.7256H61.297V57.4991H62.0197V61.7256ZM61.2384 56.378C61.2384 56.2608 61.2736 56.1618 61.3439 56.0811C61.4168 56.0004 61.5236 55.96 61.6642 55.96C61.8048 55.96 61.9116 56.0004 61.9845 56.0811C62.0574 56.1618 62.0939 56.2608 62.0939 56.378C62.0939 56.4951 62.0574 56.5928 61.9845 56.6709C61.9116 56.7491 61.8048 56.7881 61.6642 56.7881C61.5236 56.7881 61.4168 56.7491 61.3439 56.6709C61.2736 56.5928 61.2384 56.4951 61.2384 56.378ZM63.965 61.7256H63.2423V57.4991H63.965V61.7256ZM63.1837 56.378C63.1837 56.2608 63.2189 56.1618 63.2892 56.0811C63.3621 56.0004 63.4689 55.96 63.6095 55.96C63.7501 55.96 63.8569 56.0004 63.9298 56.0811C64.0027 56.1618 64.0392 56.2608 64.0392 56.378C64.0392 56.4951 64.0027 56.5928 63.9298 56.6709C63.8569 56.7491 63.7501 56.7881 63.6095 56.7881C63.4689 56.7881 63.3621 56.7491 63.2892 56.6709C63.2189 56.5928 63.1837 56.4951 63.1837 56.378Z" fill="black"/>
<rect x="134.658" y="33.8747" width="29.7757" height="28.2289" rx="14.1145" fill="#FAAF71"/>
<path d="M142.329 46.5802H140.272V52.2843H139.433V46.5802H137.381V45.8859H142.329V46.5802ZM148.077 49.2917C148.077 49.9186 147.971 50.4665 147.76 50.9352C147.55 51.401 147.251 51.757 146.864 52.0031C146.477 52.2492 146.026 52.3722 145.51 52.3722C145.007 52.3722 144.56 52.2492 144.17 52.0031C143.781 51.7541 143.477 51.401 143.26 50.944C143.047 50.484 142.937 49.9523 142.931 49.3488V48.8874C142.931 48.2721 143.038 47.7287 143.252 47.257C143.466 46.7853 143.767 46.425 144.157 46.1759C144.55 45.924 144.998 45.798 145.502 45.798C146.014 45.798 146.466 45.9225 146.855 46.1715C147.248 46.4176 147.55 46.7765 147.76 47.2482C147.971 47.7169 148.077 48.2633 148.077 48.8874V49.2917ZM147.238 48.8786C147.238 48.1198 147.085 47.5382 146.781 47.1339C146.476 46.7267 146.05 46.5231 145.502 46.5231C144.969 46.5231 144.548 46.7267 144.24 47.1339C143.936 47.5382 143.779 48.1007 143.77 48.8214V49.2917C143.77 50.027 143.924 50.6056 144.232 51.0275C144.542 51.4464 144.969 51.6559 145.51 51.6559C146.055 51.6559 146.477 51.4582 146.776 51.0627C147.075 50.6642 147.229 50.0944 147.238 49.3532V48.8786ZM149.343 52.2843V45.8859H151.149C151.705 45.8859 152.198 46.0089 152.625 46.255C153.053 46.5011 153.383 46.8512 153.614 47.3053C153.848 47.7594 153.967 48.2809 153.97 48.8698V49.2785C153.97 49.882 153.853 50.4108 153.618 50.8649C153.387 51.319 153.054 51.6676 152.621 51.9108C152.19 52.154 151.688 52.2785 151.114 52.2843H149.343ZM150.186 46.5802V51.5944H151.074C151.724 51.5944 152.23 51.3922 152.59 50.9879C152.953 50.5836 153.135 50.008 153.135 49.2609V48.8874C153.135 48.1608 152.964 47.5968 152.621 47.1955C152.281 46.7912 151.798 46.5861 151.171 46.5802H150.186ZM160.171 49.2917C160.171 49.9186 160.065 50.4665 159.854 50.9352C159.643 51.401 159.344 51.757 158.958 52.0031C158.571 52.2492 158.12 52.3722 157.604 52.3722C157.1 52.3722 156.654 52.2492 156.264 52.0031C155.874 51.7541 155.571 51.401 155.354 50.944C155.14 50.484 155.031 49.9523 155.025 49.3488V48.8874C155.025 48.2721 155.132 47.7287 155.345 47.257C155.559 46.7853 155.861 46.425 156.251 46.1759C156.643 45.924 157.092 45.798 157.595 45.798C158.108 45.798 158.559 45.9225 158.949 46.1715C159.342 46.4176 159.643 46.7765 159.854 47.2482C160.065 47.7169 160.171 48.2633 160.171 48.8874V49.2917ZM159.331 48.8786C159.331 48.1198 159.179 47.5382 158.874 47.1339C158.57 46.7267 158.143 46.5231 157.595 46.5231C157.062 46.5231 156.642 46.7267 156.334 47.1339C156.03 47.5382 155.873 48.1007 155.864 48.8214V49.2917C155.864 50.027 156.018 50.6056 156.325 51.0275C156.636 51.4464 157.062 51.6559 157.604 51.6559C158.149 51.6559 158.571 51.4582 158.87 51.0627C159.169 50.6642 159.323 50.0944 159.331 49.3532V48.8786Z" fill="black"/>
<rect x="92.5711" y="65.6964" width="25.3953" height="25.6627" rx="12.6977" fill="#607D8B"/>
<path d="M98.8976 86.9037V69.0824H108.374L112.442 73.1507V86.9037H98.8976Z" fill="white"/>
<path d="M108.226 69.4388L112.085 73.2982V86.5473H99.254V69.4388H108.226ZM108.521 68.726H98.5412V87.2601H112.798V73.0031L108.521 68.726Z" fill="#788B9C"/>
<path d="M108.165 73.3595V69.0824H108.374L112.442 73.1507V73.3595H108.165Z" fill="white"/>
<path d="M108.521 69.734L111.79 73.0031H108.521V69.734ZM108.521 68.726H107.808V73.7159H112.798V73.0031L108.521 68.726ZM101.393 75.8545H109.947V76.5673H101.393V75.8545ZM101.393 77.9931H108.521V78.7059H101.393V77.9931ZM101.393 80.1316H109.947V80.8445H101.393V80.1316ZM101.393 82.2702H108.521V82.983H101.393V82.2702Z" fill="#788B9C"/>
<rect x="13.5302" y="50.2988" width="25.3953" height="25.6627" rx="12.6977" fill="#EFBDBD"/>
<path fill-rule="evenodd" clip-rule="evenodd" d="M26.3614 54.1081C21.3776 54.1081 17.3394 58.1463 17.3394 63.1301C17.3394 67.1154 19.9239 70.4987 23.5098 71.6911C23.962 71.7733 24.1265 71.4972 24.1265 71.2564C24.1265 71.042 24.1177 70.4752 24.1147 69.7234C21.6037 70.2667 21.0751 68.5134 21.0751 68.5134C20.6639 67.4708 20.0736 67.1918 20.0736 67.1918C19.2542 66.6338 20.1353 66.6455 20.1353 66.6455C21.0399 66.7101 21.5156 67.5736 21.5156 67.5736C22.3203 68.9539 23.6272 68.5545 24.1412 68.3254C24.2234 67.741 24.4584 67.3445 24.7139 67.1184C22.7109 66.8922 20.6052 66.1169 20.6052 62.6602C20.6052 61.6734 20.9576 60.8687 21.5332 60.2373C21.4422 60.0112 21.1309 59.0919 21.6214 57.8497C21.6214 57.8497 22.3791 57.6088 24.103 58.7748C24.8225 58.5751 25.5949 58.4752 26.3614 58.4723C27.128 58.4752 27.9004 58.5751 28.6199 58.7748C30.3438 57.6088 31.0986 57.8497 31.0986 57.8497C31.592 59.0919 31.2836 60.0112 31.1896 60.2373C31.7682 60.8687 32.1147 61.6734 32.1147 62.6602C32.1147 66.1257 30.0061 66.8864 27.9973 67.1125C28.3203 67.3886 28.6081 67.9407 28.6081 68.7806C28.6081 69.9877 28.5993 70.9598 28.5993 71.2564C28.5993 71.4972 28.7609 71.7792 29.219 71.6911C32.802 70.4958 35.3835 67.1154 35.3835 63.1301C35.3835 58.1463 31.3453 54.1081 26.3614 54.1081Z" fill="black"/>
<g filter="url(#filter0_d)">
<rect x="52.5374" y="17.4506" width="25.3953" height="25.6627" rx="12.6977" fill="#FCDC5C"/>
<path d="M59.1368 31.2621H60.3564V36.5639H59.1368V31.2621Z" fill="#607D8B"/>
<path d="M59.1368 35.4279H69.707V36.564H59.1368V35.4279Z" fill="#607D8B"/>
<path d="M68.4874 31.2621H69.707V36.5639H68.4874V31.2621ZM61.576 33.5343H67.2677V34.6704H61.576V33.5343Z" fill="#607D8B"/>
<path d="M61.6088 31.3604L67.2678 31.9277L67.1373 33.0573L61.4783 32.49L61.6088 31.3604Z" fill="#A68A6E"/>
<path d="M70.4675 22.9306L71.3348 28.1701L70.129 28.3433L69.2617 23.1038L70.4675 22.9306Z" fill="#EF6C00"/>
<path d="M67.0522 23.7777L69.8295 28.4047L68.7646 28.9593L65.9873 24.3323L67.0522 23.7777Z" fill="#FF9800"/>
<path d="M63.8126 26.169L68.4876 29.1917L67.7919 30.1253L63.1169 27.1026L63.8126 26.169Z" fill="#D38B28"/>
<path d="M62.3483 28.6938L67.7036 30.4883L67.2906 31.5577L61.9353 29.7632L62.3483 28.6938Z" fill="#C09553"/>
</g>
<rect x="106.942" y="11.2916" width="27.7157" height="28.1006" rx="13.8578" fill="#64B5F6"/>
<path d="M113.658 22.1649C113.658 21.994 113.594 21.8618 113.464 21.7684C113.336 21.6727 113.112 21.5907 112.79 21.5223C112.471 21.4539 112.217 21.3719 112.028 21.2762C111.841 21.1805 111.702 21.0666 111.611 20.9344C111.522 20.8023 111.478 20.645 111.478 20.4627C111.478 20.1597 111.605 19.9033 111.861 19.6937C112.118 19.4841 112.446 19.3792 112.845 19.3792C113.264 19.3792 113.604 19.4875 113.864 19.7039C114.126 19.9204 114.257 20.1973 114.257 20.5345H113.621C113.621 20.3613 113.547 20.2121 113.399 20.0868C113.253 19.9614 113.068 19.8988 112.845 19.8988C112.615 19.8988 112.435 19.9489 112.305 20.0492C112.175 20.1494 112.11 20.2804 112.11 20.4422C112.11 20.5949 112.17 20.71 112.291 20.7874C112.412 20.8649 112.63 20.939 112.944 21.0096C113.261 21.0803 113.517 21.1646 113.713 21.2625C113.909 21.3605 114.054 21.479 114.147 21.618C114.243 21.7547 114.291 21.9222 114.291 22.1205C114.291 22.4509 114.159 22.7163 113.894 22.9168C113.63 23.1151 113.287 23.2142 112.865 23.2142C112.569 23.2142 112.307 23.1618 112.079 23.057C111.851 22.9522 111.673 22.8063 111.543 22.6195C111.415 22.4303 111.351 22.2264 111.351 22.0077H111.984C111.995 22.2196 112.079 22.3882 112.237 22.5135C112.396 22.6366 112.606 22.6981 112.865 22.6981C113.105 22.6981 113.296 22.6502 113.44 22.5545C113.586 22.4566 113.658 22.3267 113.658 22.1649ZM115.747 19.8954C116.027 19.5513 116.392 19.3792 116.841 19.3792C117.622 19.3792 118.016 19.8202 118.023 20.702V23.1458H117.391V20.6986C117.389 20.432 117.327 20.2349 117.206 20.1073C117.088 19.9797 116.902 19.9159 116.649 19.9159C116.444 19.9159 116.264 19.9706 116.109 20.0799C115.954 20.1893 115.833 20.3329 115.747 20.5106V23.1458H115.115V17.8958H115.747V19.8954ZM118.802 21.2625C118.802 20.9002 118.873 20.5744 119.014 20.285C119.158 19.9956 119.356 19.7723 119.609 19.6151C119.864 19.4579 120.155 19.3792 120.481 19.3792C120.984 19.3792 121.391 19.5536 121.701 19.9022C122.013 20.2508 122.169 20.7145 122.169 21.2933V21.3377C122.169 21.6978 122.1 22.0213 121.961 22.3084C121.824 22.5933 121.627 22.8154 121.369 22.9749C121.114 23.1345 120.82 23.2142 120.488 23.2142C119.986 23.2142 119.58 23.0399 119.267 22.6913C118.957 22.3426 118.802 21.8812 118.802 21.307V21.2625ZM119.438 21.3377C119.438 21.7479 119.533 22.0772 119.722 22.3255C119.913 22.5739 120.169 22.6981 120.488 22.6981C120.809 22.6981 121.064 22.5728 121.253 22.3221C121.442 22.0692 121.537 21.716 121.537 21.2625C121.537 20.8569 121.44 20.5288 121.246 20.2782C121.055 20.0252 120.8 19.8988 120.481 19.8988C120.169 19.8988 119.917 20.023 119.725 20.2713C119.534 20.5197 119.438 20.8752 119.438 21.3377ZM124.75 20.015C124.654 19.999 124.55 19.9911 124.439 19.9911C124.024 19.9911 123.743 20.1677 123.594 20.5208V23.1458H122.962V19.4476H123.577L123.588 19.8748C123.795 19.5444 124.089 19.3792 124.469 19.3792C124.593 19.3792 124.686 19.3952 124.75 19.4271V20.015ZM126.363 18.5521V19.4476H127.053V19.9364H126.363V22.2298C126.363 22.3779 126.394 22.4896 126.455 22.5648C126.517 22.6377 126.622 22.6742 126.77 22.6742C126.843 22.6742 126.943 22.6605 127.071 22.6331V23.1458C126.904 23.1914 126.742 23.2142 126.585 23.2142C126.303 23.2142 126.09 23.1288 125.946 22.9579C125.802 22.787 125.731 22.5443 125.731 22.2298V19.9364H125.057V19.4476H125.731V18.5521H126.363ZM113.665 28.9447L115.805 29.8094V30.4793L113.009 29.1839V28.6849L115.805 27.3929V28.0628L113.665 28.9447ZM116.929 31.5731H116.386L118.464 26.1693H119.004L116.929 31.5731ZM121.927 28.9242L119.667 28.0389V27.3895L122.586 28.6815V29.1805L119.667 30.4759V29.8197L121.927 28.9242Z" fill="white"/>
<rect x="18.1494" y="13.8578" width="25.3953" height="25.6627" rx="12.6977" fill="#FF4D4D"/>
<rect x="28.0402" y="18.6696" width="5.88102" height="9.35617" rx="2.94051" fill="black"/>
<path d="M24.8324 29.3802V26.9565H27.3995V28.85H28.6038V29.3802H33.6429V28.85H34.3718V26.9565H37.1291V29.3802H36.1149V30.2386H35.2909V31.0465H34.3718V31.5009H27.3995V31.0465H26.6706V30.2386H25.6564V29.3802H24.8324Z" fill="black" stroke="black"/>
<rect x="29.3768" y="31.2336" width="2.67319" height="3.74247" fill="black"/>
<rect x="149" y="3" width="25.3953" height="25.6627" rx="12.6977" fill="#3ACD37"/>
<path d="M158.932 15.9113H157.596V18.212H156.842V12.5245H158.725C159.365 12.5245 159.857 12.6704 160.201 12.962C160.548 13.2537 160.721 13.6782 160.721 14.2355C160.721 14.5896 160.624 14.8982 160.432 15.1613C160.242 15.4243 159.976 15.6209 159.635 15.7511L160.971 18.1652V18.212H160.166L158.932 15.9113ZM157.596 15.298H158.748C159.12 15.298 159.416 15.2016 159.635 15.0089C159.856 14.8162 159.967 14.5584 159.967 14.2355C159.967 13.8839 159.861 13.6144 159.65 13.4269C159.442 13.2394 159.14 13.1443 158.744 13.1417H157.596V15.298ZM164.99 15.5831H162.525V17.5988H165.389V18.212H161.775V12.5245H165.35V13.1417H162.525V14.9698H164.99V15.5831Z" fill="black"/>
<rect x="79.7397" width="25.1494" height="25.4141" rx="12.5747" fill="#8D6C9F"/>
<rect x="82.6518" y="5.29462" width="19.3253" height="15.8838" rx="5" fill="white"/>
<g clip-path="url(#clip0)">
<path d="M86.1443 12.3155C86.1443 12.0562 86.9153 11.1738 88.2276 11.1738C90.3378 11.1738 90.6574 13.2034 92.0497 13.2034C93.116 13.2034 93.4281 12.696 93.6133 12.696C93.7008 12.696 93.787 12.7328 93.787 12.7853C93.787 13.0073 92.9097 13.9645 91.7022 13.9645C89.6185 13.9645 89.5866 11.9349 87.8802 11.9349C86.9657 11.9349 86.547 12.4423 86.3166 12.4423C86.1648 12.4423 86.1443 12.3713 86.1443 12.3155Z" fill="black"/>
<path d="M99.6904 9.54253V16.1692C99.6904 16.6512 99.1448 17.0419 98.4742 17.0419H85.6217C84.9511 17.0419 84.4056 16.6512 84.4056 16.1692V9.54253C84.4056 9.0605 84.9511 8.6698 85.6217 8.6698H95.8092C95.91 8.6698 96.0038 8.6901 96.0837 8.72815L95.4653 9.4309H85.6217C85.5279 9.4309 85.448 9.48164 85.448 9.54253V16.1692C85.448 16.2301 85.5279 16.2808 85.6217 16.2808H98.4742C98.5681 16.2808 98.648 16.2301 98.648 16.1692V9.54253C98.648 9.48164 98.5681 9.4309 98.4742 9.4309H98.2171C98.0434 9.4309 97.887 9.36748 97.7967 9.27107L98.3526 8.6698H98.4742C98.8217 8.6698 99.1309 8.77382 99.3498 8.94126C99.5618 9.09602 99.6904 9.30912 99.6904 9.54253Z" fill="black"/>
<path d="M99.4714 8.28923C99.4019 8.02285 99.19 7.79198 98.8773 7.63976L97.9009 7.16534C97.6716 7.05371 97.4041 6.99536 97.1296 6.99536C96.6535 6.99536 96.2192 7.16788 95.9621 7.45963L94.8954 8.66978L94.2283 9.43088L93.0261 10.7958C92.9496 10.8795 92.901 10.9734 92.8767 11.0698L92.5918 12.2165C92.5257 12.4753 92.623 12.7417 92.8523 12.9446C93.0851 13.1476 93.4257 13.2643 93.787 13.2643C93.9746 13.2643 94.1623 13.2313 94.3325 13.1704L95.7571 12.6478C95.9169 12.5894 96.0524 12.5032 96.1532 12.3941L98.648 9.71249L99.2595 9.05541C99.2942 9.01989 99.322 8.98183 99.3498 8.94124C99.4888 8.74082 99.534 8.51502 99.4714 8.28923ZM95.2915 11.9679L93.8635 12.488C93.8391 12.4981 93.8113 12.5032 93.787 12.5032C93.6862 12.5032 93.5959 12.4347 93.6168 12.3535L93.9017 11.2068L95.4652 9.43088L96.0837 8.72813L96.8377 7.87316C96.9037 7.79705 97.0149 7.75646 97.1296 7.75646C97.1956 7.75646 97.2651 7.76915 97.3241 7.79705L98.3005 8.27401C98.4603 8.35266 98.5055 8.50995 98.3943 8.62665L98.3526 8.66978L97.7967 9.27105L95.2915 11.9679Z" fill="black"/>
</g>
<defs>
<filter id="filter0_d" x="51.5374" y="17.4506" width="27.3953" height="30.6627" filterUnits="userSpaceOnUse" color-interpolation-filters="sRGB">
<feFlood flood-opacity="0" result="BackgroundImageFix"/>
<feColorMatrix in="SourceAlpha" type="matrix" values="0 0 0 0 0 0 0 0 0 0 0 0 0 0 0 0 0 0 127 0"/>
<feOffset dy="4"/>
<feGaussianBlur stdDeviation="0.5"/>
<feColorMatrix type="matrix" values="0 0 0 0 0 0 0 0 0 0 0 0 0 0 0 0 0 0 0.25 0"/>
<feBlend mode="normal" in2="BackgroundImageFix" result="effect1_dropShadow"/>
<feBlend mode="normal" in="SourceGraphic" in2="effect1_dropShadow" result="shape"/>
</filter>
<linearGradient id="paint0_linear" x1="236.795" y1="93.1554" x2="-32.1494" y2="217.876" gradientUnits="userSpaceOnUse">
<stop offset="0.5" stop-color="#FFAC81"/>
<stop offset="1" stop-color="#FF928B" stop-opacity="0"/>
</linearGradient>
<linearGradient id="paint1_linear" x1="99.5" y1="53.3783" x2="99.7566" y2="58.5109" gradientUnits="userSpaceOnUse">
<stop stop-color="white"/>
<stop offset="1" stop-color="white" stop-opacity="0"/>
</linearGradient>
<clipPath id="clip0">
<rect width="16.678" height="12.1776" fill="white" transform="translate(83.7107 6.35352)"/>
</clipPath>
</defs>
</svg>
